<svg xmlns="http://www.w3.org/2000/svg" viewBox="0 0 11.79 17"><defs><style>.cls-1{fill:#fff;}</style></defs><title>Asset 42</title><g id="Layer_2" data-name="Layer 2"><g id="F_Meeting_layout_white"><path class="cls-1" d="M5.9,11.78a3.15,3.15,0,0,0,2.31-1,3.15,3.15,0,0,0,1-2.31V3.27A3.15,3.15,0,0,0,8.21,1,3.15,3.15,0,0,0,5.9,0,3.15,3.15,0,0,0,3.58,1a3.15,3.15,0,0,0-1,2.31V8.51a3.15,3.15,0,0,0,1,2.31A3.15,3.15,0,0,0,5.9,11.78Z"/><path class="cls-1" d="M11.59,6.74a.66.66,0,0,0-1.13.47V8.5a4.41,4.41,0,0,1-1.35,3.24,4.41,4.41,0,0,1-3.24,1.35,4.41,4.41,0,0,1-3.24-1.35A4.41,4.41,0,0,1,1.3,8.5V7.19a.62.62,0,0,0-.19-.46.62.62,0,0,0-.46-.19.62.62,0,0,0-.46.19A.62.62,0,0,0,0,7.19V8.51a5.67,5.67,0,0,0,1.51,3.93,5.73,5.73,0,0,0,3.74,1.92V15.7H2.61a.63.63,0,0,0-.46.19.63.63,0,0,0,0,.91.63.63,0,0,0,.46.19H9.17a.63.63,0,0,0,.46-.19.63.63,0,0,0,0-.91.63.63,0,0,0-.46-.19H6.54V14.37a5.75,5.75,0,0,0,3.74-1.9,5.58,5.58,0,0,0,1.51-3.89V7.2A.64.64,0,0,0,11.59,6.74Z"/></g></g></svg>