<svg xmlns="http://www.w3.org/2000/svg" viewBox="0 0 15.3 13.27"><defs><style>.cls-1{fill:#484848;}</style></defs><title>Asset 38</title><g id="Layer_2" data-name="Layer 2"><g id="F_Meeting_layout_white"><path class="cls-1" d="M14.93.38A1.23,1.23,0,0,0,14,0H1.28a1.23,1.23,0,0,0-.9.38,1.23,1.23,0,0,0-.37.9V10a1.22,1.22,0,0,0,.37.9,1.22,1.22,0,0,0,.9.37H5.59a1.66,1.66,0,0,1-.13.62,5.62,5.62,0,0,1-.25.56.88.88,0,0,0-.13.35.52.52,0,0,0,.51.51H9.65a.52.52,0,0,0,.51-.51.91.91,0,0,0-.13-.35,5.82,5.82,0,0,1-.25-.56,1.67,1.67,0,0,1-.13-.62H14A1.28,1.28,0,0,0,15.3,10V1.28A1.23,1.23,0,0,0,14.93.38Zm-.64,7.53a.26.26,0,0,1-.26.26H1.27A.26.26,0,0,1,1,7.91V1.27A.26.26,0,0,1,1.27,1H14a.26.26,0,0,1,.26.26V7.91Z"/></g></g></svg>