<svg xmlns="http://www.w3.org/2000/svg" viewBox="0 0 18 18"><defs><style>.cls-1{fill:#fff;}</style></defs><title>Asset 44</title><g id="Layer_2" data-name="Layer 2"><g id="F_Meeting_layout_white"><path id="settings" class="cls-1" d="M17.34,7.69l-1.78-.3A6.72,6.72,0,0,0,15,5.88l1.14-1.42a.79.79,0,0,0,0-1l-.71-.8a.79.79,0,0,0-1-.14l-1.52,1a6.71,6.71,0,0,0-2.25-1L10.32.66A.79.79,0,0,0,9.54,0H8.47A.78.78,0,0,0,7.7.66L7.4,2.45a6.71,6.71,0,0,0-1.89.79l-1.45-1a.79.79,0,0,0-1,.08L2.29,3a.79.79,0,0,0-.08,1l1,1.45a6.72,6.72,0,0,0-.78,1.88l-1.8.3A.79.79,0,0,0,0,8.47V9.53a.79.79,0,0,0,.66.78l1.8.3a6.7,6.7,0,0,0,.6,1.57L1.92,13.59a.79.79,0,0,0,0,1l.71.8a.79.79,0,0,0,1,.14l1.55-1a6.7,6.7,0,0,0,2.19,1l.3,1.79a.78.78,0,0,0,.78.66H9.54a.79.79,0,0,0,.78-.66l.3-1.79a6.7,6.7,0,0,0,1.87-.77L14,15.85a.79.79,0,0,0,1-.08l.76-.76a.78.78,0,0,0,.08-1l-1.08-1.51a6.69,6.69,0,0,0,.78-1.88l1.78-.3A.79.79,0,0,0,18,9.53V8.47A.79.79,0,0,0,17.34,7.69ZM9,12.39A3.37,3.37,0,1,1,12.4,9,3.38,3.38,0,0,1,9,12.39Z"/></g></g></svg>