<svg xmlns="http://www.w3.org/2000/svg" viewBox="0 0 15 13.21"><defs><style>.cls-1{fill:#fff;}</style></defs><title>Asset 43</title><g id="Layer_2" data-name="Layer 2"><g id="F_Meeting_layout_white"><path class="cls-1" d="M10.9,12c0,.28-.33.52-.73.52H.73C.33,12.53,0,12.3,0,12V5.32C0,5,.33,4.8.73,4.8h9.45c.4,0,.73.23.73.52V12Z"/><circle class="cls-1" cx="2.73" cy="2.73" r="1.82"/><circle class="cls-1" cx="7.73" cy="2.27" r="2.27"/><path class="cls-1" d="M15,12.76a.51.51,0,0,1-.48.45,11.47,11.47,0,0,1-3.15-2.88V7a10.67,10.67,0,0,1,3.15-2.88.45.45,0,0,1,.48.45Z"/></g></g></svg>